<?xml version="1.0" encoding="UTF-8"?>
<svg version="1.1" xmlns="http://www.w3.org/2000/svg" width="1200" height="1200">
<path d="M0 0 C396 0 792 0 1200 0 C1200 396 1200 792 1200 1200 C804 1200 408 1200 0 1200 C0 804 0 408 0 0 Z " fill="#FEFEFE" transform="translate(0,0)"/>
<path d="M0 0 C0.87575684 0.1129541 1.75151367 0.2259082 2.65380859 0.34228516 C50.77320077 6.62092026 96.00431294 27.12176806 134 57 C134.99515625 57.78117188 135.9903125 58.56234375 137.015625 59.3671875 C162.57257294 79.8857657 162.57257294 79.8857657 166 88 C166.53506892 92.9226341 165.27453032 95.69099534 163 100 C163.8353125 100.90878906 163.8353125 100.90878906 164.6875 101.8359375 C170.03799629 107.71063781 175.10991041 113.73748745 180 120 C184.0923888 116.08127346 187.6046592 111.87073735 191.125 107.4375 C204.74314959 90.52605987 219.82416091 74.34022334 237 61 C238.13803073 60.06436844 239.2732706 59.12533577 240.40625 58.18359375 C254.21801697 46.7710712 269.21267151 37.4287947 285 29 C285.95592041 28.48808105 285.95592041 28.48808105 286.93115234 27.96582031 C312.46806978 14.42302472 339.60113089 5.99413794 368 1 C369.03366699 0.81598633 370.06733398 0.63197266 371.13232422 0.44238281 C403.09137987 -5.09351626 437.46138061 -3.31449003 469 4 C469.85561523 4.19352051 470.71123047 4.38704102 471.59277344 4.58642578 C477.45707197 6.0995432 482.33408758 7.98282111 486 13 C487.59550135 16.69866221 488.4422743 20.43756374 489.25 24.375 C489.49250488 25.48641357 489.73500977 26.59782715 489.98486328 27.74291992 C490.70320896 31.15469959 491.36465726 34.5718592 492 38 C492.18079102 38.9679248 492.36158203 39.93584961 492.54785156 40.93310547 C504.50008298 108.61885336 486.12416672 181.39946495 447.28125 237.390625 C443.02676702 243.40880243 438.65386077 249.28261513 434 255 C433.37327393 255.77102051 433.37327393 255.77102051 432.73388672 256.55761719 C417.58767459 275.08798111 400.90859757 292.27243358 381.75488281 306.67773438 C379.99071703 308.00699452 378.24155427 309.35447286 376.4921875 310.703125 C362.37923295 321.45072705 347.04119389 330.52348179 330.99072266 338.06445312 C329.64580798 338.69650035 328.30438867 339.33603121 326.96630859 339.98242188 C314.59790178 345.94156036 301.84584684 350.20204054 288.71679688 354.171875 C286.52548121 354.83982456 284.34712902 355.53219042 282.171875 356.25 C259.95299032 363.25496857 236.35631228 364.23605248 213.25 364.25 C211.74483322 364.25101212 211.74483322 364.25101212 210.20925903 364.25204468 C191.24517655 364.23178573 173.32056994 362.92198457 154.8125 358.5625 C153.99128662 358.36954346 153.17007324 358.17658691 152.32397461 357.9777832 C148.75646005 357.05066028 146.4777461 356.42609788 143.6875 353.9375 C139.32790024 350.79453273 134.43861605 350.90977729 129.1875 350.4375 C126.94226922 350.20471796 124.69747047 349.96773085 122.453125 349.7265625 C121.35677734 349.60958008 120.26042969 349.49259766 119.13085938 349.37207031 C112.68763741 348.6063599 106.34708724 347.33373964 100 346 C99.731875 346.598125 99.46375 347.19625 99.1875 347.8125 C97.98057305 350.03578649 96.96064021 351.41349161 95 353 C86.84257161 354.97357138 80.73817262 352.7922119 73 350 C71.81792969 349.5978125 70.63585937 349.195625 69.41796875 348.78125 C44.47070185 340.08251046 21.01780004 326.94240884 0 311 C-0.57943359 310.56333008 -1.15886719 310.12666016 -1.75585938 309.67675781 C-9.29088275 303.97002528 -16.42330699 297.95752343 -23.3203125 291.49609375 C-25.5911045 289.38088079 -27.89529043 287.33278584 -30.25 285.3125 C-37.06540385 279.38606187 -43.14756796 272.86468171 -49 266 C-49.82371094 265.05382812 -50.64742188 264.10765625 -51.49609375 263.1328125 C-94.66703845 213.25970707 -119.628497 149.62871001 -119.3125 83.5 C-119.31034485 82.67883698 -119.3081897 81.85767395 -119.30596924 81.0116272 C-119.22512242 61.67077747 -117.39778585 43.08109662 -113.125 24.1875 C-112.89280762 23.13651123 -112.66061523 22.08552246 -112.42138672 21.00268555 C-111.04304025 15.384093 -109.9161617 11.48513413 -105 8 C-75.25509531 -6.46392324 -31.98458204 -4.58400418 0 0 Z " fill="#000101" transform="translate(412,587)"/>
<path d="M0 0 C0.87575684 0.1129541 1.75151367 0.2259082 2.65380859 0.34228516 C50.77320077 6.62092026 96.00431294 27.12176806 134 57 C134.99515625 57.78117188 135.9903125 58.56234375 137.015625 59.3671875 C162.57257294 79.8857657 162.57257294 79.8857657 166 88 C166.53506892 92.9226341 165.27453032 95.69099534 163 100 C163.54527344 100.59425781 164.09054687 101.18851563 164.65234375 101.80078125 C170.32519011 108.03606366 175.7178971 114.43171129 181 121 C180.62230469 121.57363281 180.24460937 122.14726563 179.85546875 122.73828125 C161.22633551 151.48909812 146.62356518 181.7530978 138 215 C137.68724121 216.17755859 137.68724121 216.17755859 137.36816406 217.37890625 C136.01620411 222.5496401 134.92017442 227.73562253 134 233 C133.85046875 233.84933105 133.7009375 234.69866211 133.546875 235.57373047 C127.62491452 271.31608028 127.87454157 311.8311594 139.22167969 346.453125 C140 349 140 349 140 351 C132.39490026 351.25080648 125.24778258 350.28533249 117.75 349.0625 C116.59242188 348.88009766 115.43484375 348.69769531 114.2421875 348.50976562 C109.47554513 347.7529373 104.72782992 346.97315401 100 346 C99.731875 346.598125 99.46375 347.19625 99.1875 347.8125 C97.97346803 350.04887468 96.92797415 351.35648105 95 353 C86.84257161 354.97357138 80.73817262 352.7922119 73 350 C71.81792969 349.5978125 70.63585937 349.195625 69.41796875 348.78125 C44.47070185 340.08251046 21.01780004 326.94240884 0 311 C-0.57943359 310.56333008 -1.15886719 310.12666016 -1.75585938 309.67675781 C-9.29088275 303.97002528 -16.42330699 297.95752343 -23.3203125 291.49609375 C-25.5911045 289.38088079 -27.89529043 287.33278584 -30.25 285.3125 C-37.06540385 279.38606187 -43.14756796 272.86468171 -49 266 C-49.82371094 265.05382812 -50.64742188 264.10765625 -51.49609375 263.1328125 C-94.66703845 213.25970707 -119.628497 149.62871001 -119.3125 83.5 C-119.31034485 82.67883698 -119.3081897 81.85767395 -119.30596924 81.0116272 C-119.22512242 61.67077747 -117.39778585 43.08109662 -113.125 24.1875 C-112.89280762 23.13651123 -112.66061523 22.08552246 -112.42138672 21.00268555 C-111.04304025 15.384093 -109.9161617 11.48513413 -105 8 C-75.25509531 -6.46392324 -31.98458204 -4.58400418 0 0 Z " fill="#000000" transform="translate(412,587)"/>
<path d="M0 0 C1.42952763 0.9469302 2.85824334 1.89508617 4.28662109 2.84375 C5.48017715 3.63555664 5.48017715 3.63555664 6.69784546 4.44335938 C9.76588114 6.51786345 12.71465919 8.71117024 15.625 11 C16.20910645 11.45785889 16.79321289 11.91571777 17.39501953 12.38745117 C22.751764 16.66275041 27.74959496 21.2897202 32.67431641 26.05273438 C40.13943249 33.65805195 40.13943249 33.65805195 49.625 37.5 C52.9510843 37.00724677 55.83243701 36.10021796 59 35 C65.25204593 41.81369545 71.20571915 48.79481861 77 56 C76.43345703 56.86044922 76.43345703 56.86044922 75.85546875 57.73828125 C57.22633551 86.48909812 42.62356518 116.7530978 34 150 C33.79149414 150.78503906 33.58298828 151.57007813 33.36816406 152.37890625 C32.01620411 157.5496401 30.92017442 162.73562253 30 168 C29.85046875 168.84933105 29.7009375 169.69866211 29.546875 170.57373047 C23.62491452 206.31608028 23.87454157 246.8311594 35.22167969 281.453125 C36 284 36 284 36 286 C28.39490026 286.25080648 21.24778258 285.28533249 13.75 284.0625 C12.59242188 283.88009766 11.43484375 283.69769531 10.2421875 283.50976562 C5.47554513 282.7529373 0.72782992 281.97315401 -4 281 C-3.83723958 279.11197917 -3.67447917 277.22395833 -3.51171875 275.3359375 C-4.26835853 271.7161728 -6.24865196 269.34060476 -9 267 C-11.57319471 265.69109996 -14.22208787 264.94823834 -17 264.1875 C-51.91638327 253.53248507 -83.86368171 234.04120923 -110.546875 209.26953125 C-112.70242371 207.27530546 -114.89486135 205.34716597 -117.125 203.4375 C-124.31693631 197.17213218 -130.87870457 190.30606229 -137 183 C-137.45358887 182.46552246 -137.90717773 181.93104492 -138.37451172 181.38037109 C-153.5286475 163.46565449 -165.45979236 144.06229996 -176.0625 123.1875 C-176.45719482 122.41599609 -176.85188965 121.64449219 -177.25854492 120.84960938 C-177.61795166 120.12966797 -177.9773584 119.40972656 -178.34765625 118.66796875 C-178.66742432 118.03141357 -178.98719238 117.3948584 -179.31665039 116.73901367 C-180 115 -180 115 -180 112 C-161.42612831 110.19262926 -142.83501614 108.99064251 -124.1875 108.3125 C-123.50498279 108.2870086 -122.82246558 108.2615172 -122.11926603 108.23525333 C-90.55407704 107.089425 -60.36164195 106.24523443 -35.78102112 128.96913147 C-23.65211882 140.7536593 -13.14067672 154.37420664 -3.92012024 168.5196228 C-1.26680587 171.94712715 0.64183173 172.82284762 4.875 173.375 C8.87153796 172.89541545 10.90459308 171.53260567 14 169 C16.23929931 165.36585095 16.42967435 162.66768087 15.8671875 158.50390625 C13.73639108 152.35147155 7.99573051 147.47859915 2.88510132 143.69223022 C-0.98831981 139.76787734 -0.70974275 135.65836338 -0.746521 130.36889648 C-0.72494934 129.08136475 -0.70337769 127.79383301 -0.68115234 126.46728516 C-0.67945849 125.0871081 -0.68041266 123.70692563 -0.68380737 122.32675171 C-0.68552518 118.59121189 -0.65031231 114.85683382 -0.60836363 111.12156343 C-0.57079256 107.21386425 -0.56732629 103.30613685 -0.56021118 99.39828491 C-0.54158089 92.00337457 -0.49236906 84.608998 -0.43211424 77.21432245 C-0.36499206 68.79362102 -0.33204585 60.37289377 -0.30194163 51.95199132 C-0.23926791 34.6343524 -0.13376889 17.31723268 0 0 Z " fill="#062D16" transform="translate(516,652)"/>
<path d="M0 0 C0.18697683 19.04534447 0.32800136 38.09050242 0.41449738 57.13657475 C0.45572875 65.98027816 0.51192908 74.82341094 0.60351562 83.66674805 C0.68331551 91.37568132 0.73488017 99.0842013 0.75270796 106.79353613 C0.76312782 110.87490759 0.78756928 114.95509687 0.84584045 119.03608894 C0.9002834 122.88024264 0.91686585 126.72273142 0.90486145 130.56723404 C0.90705625 131.97537358 0.92289108 133.38357071 0.9536438 134.79137611 C1.17464721 145.43360157 1.17464721 145.43360157 -1.73265648 149.31050682 C-3.7383984 151.06347345 -5.8006709 152.50469691 -8 154 C-9.07470672 155.1463586 -10.11784581 156.3239885 -11.11181641 157.54101562 C-16.75315497 164.17171786 -23.0541186 170.19755046 -29.2109375 176.34375 C-30.58873855 177.72222549 -31.96639119 179.10084932 -33.34390259 180.47961426 C-36.21511521 183.35229378 -39.08811058 186.22317489 -41.96240234 189.09277344 C-45.65479219 192.77942881 -49.34262383 196.47060632 -53.02916527 200.16310883 C-55.86509253 203.00263692 -58.70338134 205.8397948 -61.54240799 208.67622375 C-62.90437945 210.03752656 -64.26560414 211.39957693 -65.62607956 212.76237488 C-67.51703645 214.65585446 -69.41113942 216.54612785 -71.30615234 218.43554688 C-71.87130554 219.0027243 -72.43645874 219.56990173 -73.01873779 220.15426636 C-76.88572991 224 -76.88572991 224 -78 224 C-84.77185511 190.74535438 -82.67428482 153.68320913 -74 121 C-73.69304199 119.82824219 -73.69304199 119.82824219 -73.37988281 118.6328125 C-67.5529198 96.82307353 -30.1883391 0 0 0 Z " fill="#267C46" transform="translate(647,683)"/>
<path d="M0 0 C17.49 0 34.98 0 53 0 C53 7.59 53 15.18 53 23 C51.02 23 49.04 23 47 23 C47 30.26 47 37.52 47 45 C53.27 45 59.54 45 66 45 C66 38.07 66 31.14 66 24 C63.69 24 61.38 24 59 24 C59 16.08 59 8.16 59 0 C76.82 0 94.64 0 113 0 C113 7.59 113 15.18 113 23 C110.69 23 108.38 23 106 23 C106 44.12 106 65.24 106 87 C108.31 87 110.62 87 113 87 C113 94.92 113 102.84 113 111 C95.18 111 77.36 111 59 111 C59 103.08 59 95.16 59 87 C61.31 87 63.62 87 66 87 C66 79.41 66 71.82 66 64 C59.73 64 53.46 64 47 64 C47 71.59 47 79.18 47 87 C48.98 87 50.96 87 53 87 C53 94.92 53 102.84 53 111 C35.51 111 18.02 111 0 111 C0 103.08 0 95.16 0 87 C2.31 87 4.62 87 7 87 C7 65.88 7 44.76 7 23 C4.69 23 2.38 23 0 23 C0 15.41 0 7.82 0 0 Z " fill="#030303" transform="translate(667,235)"/>
<path d="M0 0 C2.431106 15.79852549 4.02988141 31.60302812 4.9375 47.5625 C5.00497814 48.74198589 5.07245628 49.92147179 5.14197922 51.13669968 C6.69632758 81.95080986 3.52571072 105.98476075 -17.5546875 129.5625 C-24.48598097 137.12669018 -31.83545331 144.17847222 -39.4375 151.0625 C-40.85144987 152.34467848 -40.85144987 152.34467848 -42.29396439 153.65275955 C-76.00230152 184 -76.00230152 184 -80 184 C-80.35105879 165.54574998 -80.61522721 147.09218107 -80.77718258 128.63527966 C-80.85439617 120.06439005 -80.95956942 111.49557976 -81.1315918 102.92602539 C-81.28153281 95.45289778 -81.37797007 87.98127608 -81.41132742 80.50668603 C-81.43081828 76.55124217 -81.47628651 72.6001043 -81.58595085 68.64604759 C-82.27849866 42.67819136 -82.27849866 42.67819136 -76.80691528 36.71377563 C-73.7735097 34.17494027 -70.58386718 32.40980792 -66.95227909 30.87131023 C-63.74653896 29.44057515 -60.93079813 27.48697649 -58 25.5625 C-55.36139901 23.99090863 -52.68223324 22.49578123 -50 21 C-49.17000488 20.5344873 -48.34000977 20.06897461 -47.48486328 19.58935547 C-12.21636885 0 -12.21636885 0 0 0 Z " fill="#267D46" transform="translate(751,620)"/>
<path d="M0 0 C9.42386774 -0.09081899 18.8474389 -0.16401234 28.27164745 -0.20724869 C32.64895742 -0.228013 37.02594924 -0.25612313 41.40307617 -0.30175781 C45.63712446 -0.34561827 49.87086917 -0.3692207 54.10512733 -0.37950897 C55.71047041 -0.38682899 57.31579923 -0.4011205 58.92101097 -0.42292023 C71.31016813 -0.58428947 83.72018955 0.37491988 94.0546875 8.078125 C100.6380375 14.58215753 102.55448231 22.15069587 102.625 31.125 C102.42419414 41.00136974 100.10367937 48.89632063 93 56 C90.75 57.25 90.75 57.25 89 58 C88.505 58.99 88.505 58.99 88 60 C88.680625 60.04125 89.36125 60.0825 90.0625 60.125 C94.1860808 61.35330066 97.17990529 63.7629558 100 67 C101.2698685 71.04184032 101.11066435 75.05599629 101.0625 79.25 C101.05798828 79.99507813 101.05347656 80.74015625 101.04882812 81.5078125 C101.03709246 83.3385764 101.0191585 85.16929873 101 87 C103.31 87 105.62 87 108 87 C108 94.92 108 102.84 108 111 C93.15 111 78.3 111 63 111 C62.8125 91.3125 62.8125 91.3125 62.79223633 85.12231445 C62.76578012 83.49427061 62.73750067 81.86625493 62.70703125 80.23828125 C62.71101929 79.40018921 62.71500732 78.56209717 62.71911621 77.6986084 C62.62039948 73.63184248 62.30527503 71.47956256 60.08081055 67.98510742 C56.19979553 65.15353939 56.19979553 65.15353939 47 65 C47 72.26 47 79.52 47 87 C49.97 87 52.94 87 56 87 C56 94.92 56 102.84 56 111 C37.19 111 18.38 111 -1 111 C-1 103.08 -1 95.16 -1 87 C1.64 87 4.28 87 7 87 C7 65.88 7 44.76 7 23 C4.69 23 2.38 23 0 23 C0 15.41 0 7.82 0 0 Z " fill="#030303" transform="translate(163,235)"/>
<path d="M0 0 C1.15884107 0.0417526 1.15884107 0.0417526 2.34109306 0.08434868 C22.57037949 0.82704145 42.72497818 2.17840077 62.875 4.125 C62.24482403 5.40052143 61.61289063 6.6751747 60.98022461 7.94946289 C60.62850693 8.65937881 60.27678925 9.36929474 59.91441345 10.10072327 C52.32726603 24.87683181 40.640301 38.52202875 29.30078125 50.55078125 C27.19976305 52.78036417 25.18032722 55.04928517 23.1875 57.375 C19.61361435 61.48753349 15.85229438 65.40046826 11.875 69.125 C11.13047577 69.97865646 10.38595154 70.83231293 9.61886597 71.71183777 C4.61582615 75.81175549 -1.9929718 74.77717424 -8.11669922 74.69262695 C-9.54613699 74.6912155 -10.97557837 74.69201037 -12.40501404 74.69483948 C-16.27468969 74.69627128 -20.14358693 74.66692082 -24.01308203 74.63196969 C-28.06093723 74.60066624 -32.10881123 74.59777232 -36.1567688 74.59184265 C-43.8172144 74.57631586 -51.47730229 74.53530339 -59.13759053 74.4850952 C-67.86060861 74.4291653 -76.58364397 74.40170611 -85.30679679 74.37661803 C-103.2464005 74.32438632 -121.18567147 74.2364669 -139.125 74.125 C-132.45734515 60.45893092 -122.21737118 48.34158363 -112.375 36.875 C-111.70858742 36.09666054 -111.04217484 35.31832108 -110.35556793 34.51639557 C-79.3747072 -1.00598545 -43.92422691 -1.62301553 0 0 Z " fill="#267C46" transform="translate(787.125,788.875)"/>
<path d="M0 0 C2.13593882 3.93405473 2.65659986 7.69322041 3.109375 12.09765625 C3.19346619 12.89099869 3.27755737 13.68434113 3.36419678 14.50172424 C4.21231805 23.14676166 4.31089084 31.75802268 4.25 40.4375 C4.24656586 41.24593353 4.24313171 42.05436707 4.23959351 42.88729858 C4.06938985 77.1362432 -3.55830824 107.00707834 -16 139 C-56.26 139 -96.52 139 -138 139 C-134.17491701 134.53740318 -130.41538819 130.2707793 -126.26724243 126.14698792 C-125.72308697 125.60197803 -125.17893151 125.05696814 -124.61828649 124.49544281 C-122.81510482 122.690629 -121.00840034 120.8893857 -119.20166016 119.08813477 C-117.90008413 117.78684113 -116.59872889 116.48532663 -115.2975769 115.18360901 C-111.77961844 111.66536459 -108.25859351 108.15020381 -104.73699617 104.63560224 C-101.05165887 100.95653202 -97.36916845 97.2746145 -93.68637085 93.59300232 C-86.71871294 86.62844785 -79.74851066 79.66644563 -72.77738321 72.70536417 C-64.83829345 64.77746624 -56.90205568 56.84671595 -48.96605229 48.91572869 C-32.64719894 32.60731735 -16.32477994 16.30247864 0 0 Z " fill="#267C46" transform="translate(879,630)"/>
<path d="M0 0 C8.16388485 5.64022584 12.55965662 13.54872708 14.68359375 23.078125 C15.26255512 27.79174442 15.28195031 32.45443097 15.28515625 37.19921875 C15.29740234 38.13765625 15.30964844 39.07609375 15.32226562 40.04296875 C15.34678096 51.87570441 13.34139189 65.0849282 4.828125 73.9765625 C-1.8334962 79.6457074 -9.52117113 80.36055871 -18.00390625 79.97265625 C-23.61432845 79.21935307 -27.68609709 77.19317708 -31.90234375 73.44921875 C-32.89234375 72.12921875 -33.88234375 70.80921875 -34.90234375 69.44921875 C-35.23234375 75.05921875 -35.56234375 80.66921875 -35.90234375 86.44921875 C-32.60234375 86.44921875 -29.30234375 86.44921875 -25.90234375 86.44921875 C-25.90234375 94.03921875 -25.90234375 101.62921875 -25.90234375 109.44921875 C-42.07234375 109.44921875 -58.24234375 109.44921875 -74.90234375 109.44921875 C-74.90234375 101.85921875 -74.90234375 94.26921875 -74.90234375 86.44921875 C-72.92234375 86.44921875 -70.94234375 86.44921875 -68.90234375 86.44921875 C-68.90234375 65.32921875 -68.90234375 44.20921875 -68.90234375 22.44921875 C-70.88234375 22.44921875 -72.86234375 22.44921875 -74.90234375 22.44921875 C-74.90234375 14.85921875 -74.90234375 7.26921875 -74.90234375 -0.55078125 C-62.03234375 -0.55078125 -49.16234375 -0.55078125 -35.90234375 -0.55078125 C-35.40734375 3.40921875 -35.40734375 3.40921875 -34.90234375 7.44921875 C-34.41765625 6.97871094 -33.93296875 6.50820313 -33.43359375 6.0234375 C-24.06730901 -2.67640006 -12.06999472 -6.24310072 0 0 Z " fill="#020202" transform="translate(562.90234375,267.55078125)"/>
<path d="M0 0 C6.79366605 0.80971177 12.75934888 2.30381663 19.25 4.5 C20.29397949 4.85022217 21.33795898 5.20044434 22.41357422 5.5612793 C34.70940173 9.78826141 46.38364033 15.19182016 58 21 C58 63.9 58 106.8 58 151 C55.69 149.02 53.38 147.04 51 145 C49.19359924 143.68311494 47.36872044 142.39108761 45.52368164 141.12890625 C38.4034606 136.09910367 31.64479089 130.71551647 25.0625 125 C24.46648861 124.48306454 23.87047722 123.96612907 23.25640488 123.4335289 C6.90386865 109.00505286 -1.81174402 94.99775801 -3.21069145 72.92749405 C-4.33264192 48.62621934 -2.57100542 24.16351861 0 0 Z " fill="#052D16" transform="translate(434,616)"/>
<path d="M0 0 C6.09122297 5.04332446 11.66760353 10.52558551 17.24975586 16.12036133 C18.2653476 17.13459575 19.28115146 18.14861781 20.29714966 19.16244507 C23.03658314 21.89734713 25.77287744 24.63536938 28.50845408 27.37412858 C31.37502981 30.24324601 34.24405575 33.10991166 37.11268616 35.97697449 C41.92173095 40.78420463 46.72867326 45.59352955 51.53442383 50.40405273 C57.09659944 55.9716882 62.66239343 61.53568702 68.23004431 67.09784681 C73.01330065 71.87657406 77.79461676 76.65723602 82.57429796 81.43953913 C85.42808892 84.29489161 88.2825573 87.14955805 91.13877678 90.00248146 C93.8176778 92.67850611 96.49414427 95.35694155 99.16870499 98.03730392 C100.15310875 99.02303576 101.13837523 100.00790687 102.12454033 100.9918766 C103.46426966 102.32889675 104.80065135 103.66926889 106.13682556 105.00984192 C106.88729125 105.76068463 107.63775694 106.51152735 108.41096401 107.28512287 C110 109 110 109 110 110 C76.01 110 42.02 110 7 110 C4.39464109 102.18392326 2.21962884 95.17927225 0.875 87.1875 C0.71902344 86.31802734 0.56304687 85.44855469 0.40234375 84.55273438 C-0.09649594 81.70605001 -0.55424043 78.85547524 -1 76 C-1.18240234 74.86457764 -1.36480469 73.72915527 -1.55273438 72.55932617 C-2.97909476 62.96375317 -3.31705347 53.62094994 -3.25 43.9375 C-3.2478952 43.18040741 -3.24579041 42.42331482 -3.24362183 41.64328003 C-3.14823769 12.29470086 -3.14823769 12.29470086 0 0 Z " fill="#052D16" transform="translate(320,630)"/>
<path d="M0 0 C0.89976562 -0.020625 1.79953125 -0.04125 2.7265625 -0.0625 C12.56465146 -0.11904074 21.41456477 1.96957912 28.65234375 8.96875 C39.36792695 20.38662301 38.875 30.31306744 38.875 46.25 C23.695 46.25 8.515 46.25 -7.125 46.25 C-5.09884121 54.02277038 -5.09884121 54.02277038 -1.125 56.25 C2.31650299 56.6888677 5.78351842 56.5808822 9.25 56.5625 C10.23846924 56.56121094 11.22693848 56.55992187 12.24536133 56.55859375 C18.99866007 56.47022148 25.00422432 55.76799675 31.51171875 53.90625 C33.875 53.25 33.875 53.25 36.875 53.25 C36.875 60.84 36.875 68.43 36.875 76.25 C24.88891151 81.38689507 13.97732946 82.55191354 1.0625 82.6875 C-0.65404785 82.72073364 -0.65404785 82.72073364 -2.40527344 82.75463867 C-13.48544482 82.726496 -22.56359784 79.33246513 -31.125 72.25 C-39.21206009 64.05487229 -42.02392542 52.89263034 -42.375 41.6875 C-42.22459957 29.56522568 -39.37856076 19.95880082 -31.0859375 11.0625 C-22.02569121 2.35441876 -12.16946738 0.06798585 0 0 Z " fill="#020202" transform="translate(968.125,264.75)"/>
<path d="M0 0 C0.89976562 -0.020625 1.79953125 -0.04125 2.7265625 -0.0625 C12.95291349 -0.12127213 22.09246294 2.40673465 29.875 9.25 C39.43829661 20.33757752 38.875 31.47408824 38.875 46.25 C23.695 46.25 8.515 46.25 -7.125 46.25 C-5.09884121 54.02277038 -5.09884121 54.02277038 -1.125 56.25 C2.31650299 56.6888677 5.78351842 56.5808822 9.25 56.5625 C10.23846924 56.56121094 11.22693848 56.55992187 12.24536133 56.55859375 C18.99866007 56.47022148 25.00422432 55.76799675 31.51171875 53.90625 C33.875 53.25 33.875 53.25 36.875 53.25 C36.875 60.84 36.875 68.43 36.875 76.25 C34.4825 77.054375 32.09 77.85875 29.625 78.6875 C28.87831055 78.93943115 28.13162109 79.1913623 27.36230469 79.45092773 C19.38109913 82.12242056 12.67189655 82.46544863 4.25 82.5 C3.01636719 82.520625 1.78273438 82.54125 0.51171875 82.5625 C-11.87697915 82.61516184 -21.59631491 80.18516826 -30.875 71.75 C-41.36358523 60.09601641 -41.71927385 48.53071451 -41.26123047 33.5546875 C-40.67631302 23.65930984 -35.98145989 15.73337965 -28.9375 9 C-20.3421445 1.68388638 -10.9094658 0.06094674 0 0 Z " fill="#020202" transform="translate(623.125,264.75)"/>
<path d="M0 0 C7.44226274 5.91743823 11.07608657 13.55145926 13.640625 22.52734375 C13.640625 28.46734375 13.640625 34.40734375 13.640625 40.52734375 C-1.539375 40.52734375 -16.719375 40.52734375 -32.359375 40.52734375 C-31.01970146 46.99138431 -31.01970146 46.99138431 -28.7734375 49.44140625 C-25.15346553 51.06980788 -21.62753459 50.96808411 -17.734375 50.90234375 C-16.49240356 50.89364258 -16.49240356 50.89364258 -15.2253418 50.88476562 C-6.40132686 50.70446223 1.98215632 49.18976974 10.640625 47.52734375 C10.640625 55.11734375 10.640625 62.70734375 10.640625 70.52734375 C-1.07711074 75.03416519 -11.22521843 76.88830505 -23.796875 76.90234375 C-24.94736328 76.92683594 -26.09785156 76.95132813 -27.28320312 76.9765625 C-39.08946993 77.01669712 -48.85288148 73.95092797 -57.359375 65.52734375 C-66.39561386 54.53358268 -68.22329281 42.47801653 -67.359375 28.52734375 C-65.76026408 17.57749948 -61.90118253 8.87007551 -52.984375 2.08984375 C-38.34731278 -7.7742634 -15.32923262 -9.56808063 0 0 Z " fill="#020202" transform="translate(342.359375,270.47265625)"/>
<path d="M0 0 C14.19 0 28.38 0 43 0 C43 7.59 43 15.18 43 23 C41.35 23 39.7 23 38 23 C38.14099121 23.56396484 38.28198242 24.12792969 38.42724609 24.70898438 C40.61816406 33.47265625 42.80908203 42.23632812 45 51 C45.66 51 46.32 51 47 51 C47.0928125 49.2984375 47.0928125 49.2984375 47.1875 47.5625 C48.04557019 39.5709209 50.40198011 30.19603979 54 23 C52.02 23 50.04 23 48 23 C48 15.41 48 7.82 48 0 C61.53 0 75.06 0 89 0 C89 7.59 89 15.18 89 23 C87.02 23.33 85.04 23.66 83 24 C81.38027887 29.09978114 79.76297948 34.20032236 78.14770508 39.30151367 C77.60048217 41.02860101 77.05265293 42.75549637 76.50415039 44.48217773 C75.70550555 46.99670114 74.9092131 49.51196044 74.11328125 52.02734375 C73.87660233 52.77080551 73.6399234 53.51426727 73.39607239 54.28025818 C70.8042149 62.48685475 68.43020323 70.737309 66 79 C51.81 79 37.62 79 23 79 C20.57490225 71.50818016 18.15245511 64.01561178 15.73681641 56.52075195 C14.91433145 53.96995086 14.08967689 51.4198664 13.26318359 48.87036133 C12.07761012 45.21045473 10.89762924 41.54878624 9.71875 37.88671875 C9.16096863 36.17097908 9.16096863 36.17097908 8.59191895 34.420578 C8.25156616 33.35970474 7.91121338 32.29883148 7.56054688 31.20581055 C7.2585437 30.27093307 6.95654053 29.3360556 6.64538574 28.37284851 C6 26 6 26 6 23 C4.02 23 2.04 23 0 23 C0 15.41 0 7.82 0 0 Z " fill="#010101" transform="translate(834,267)"/>
<path d="M0 0 C8.01927822 0.40960579 16.03993191 0.60206916 24.06713581 0.78130817 C40.52022989 1.1533092 56.95222358 1.78230443 73.38969183 2.59295797 C70.94866171 5.08052752 68.78031765 7.15685367 65.72953558 8.85467672 C65.02860785 9.24671286 64.32768011 9.63874899 63.60551214 10.042665 C62.85366644 10.45113668 62.10182074 10.85960836 61.32719183 11.28045797 C60.53280706 11.7147109 59.7384223 12.14896383 58.91996527 12.59637594 C39.27953832 23.21084304 19.1727393 31.77400761 -2.61030817 36.90545797 C-3.58040827 37.13579733 -4.55050837 37.36613668 -5.55000544 37.60345602 C-23.17627026 41.51514033 -40.66292577 43.07894028 -58.69136286 42.92913961 C-61.76877185 42.90519763 -64.84532727 42.90865818 -67.92280817 42.9152236 C-93.17905431 42.88046055 -93.17905431 42.88046055 -99.61030817 38.59295797 C-73.06829221 -1.17217764 -43.76962124 -2.27694957 0 0 Z " fill="#267D46" transform="translate(686.6103081703186,884.4070420265198)"/>
<path d="M0 0 C0 9.57 0 19.14 0 29 C-8.25 29 -16.5 29 -25 29 C-25.99 24.05 -25.99 24.05 -27 19 C-28.4025 18.7525 -29.805 18.505 -31.25 18.25 C-32.03890625 18.11078125 -32.8278125 17.9715625 -33.640625 17.828125 C-36.10191644 17.82973787 -36.10191644 17.82973787 -38.2734375 19.359375 C-40.92896797 23.42077454 -40.50371975 27.25769343 -40.375 32 C-40.37306641 33.35351562 -40.37306641 33.35351562 -40.37109375 34.734375 C-40.33477337 40.65534241 -40.33477337 40.65534241 -38 46 C-34.85822716 48.09451523 -34.14579689 48.24927157 -30.5703125 48.23046875 C-29.69785889 48.22917969 -28.82540527 48.22789062 -27.92651367 48.2265625 C-27.00201416 48.21367187 -26.07751465 48.20078125 -25.125 48.1875 C-23.7160144 48.17783203 -23.7160144 48.17783203 -22.27856445 48.16796875 C-15.14081643 48.08956561 -8.10743236 47.68505372 -1 47 C-1 54.26 -1 61.52 -1 69 C-11.56179047 72.96067143 -20.27320128 74.3465206 -31.5 74.3125 C-33.09521484 74.33666992 -33.09521484 74.33666992 -34.72265625 74.36132812 C-46.50929485 74.36855919 -57.36619483 71.39280652 -66.04296875 63.03125 C-73.86790945 53.82151169 -75.35117655 44.11801287 -75.5 32.375 C-75.51861084 31.40933105 -75.53722168 30.44366211 -75.55639648 29.44873047 C-75.46767664 19.34844971 -72.12036519 10.38321761 -65.09765625 3 C-47.05476487 -14.25014572 -20.53872719 -9.47941255 0 0 Z " fill="#020202" transform="translate(435,273)"/>
<path d="M0 0 C0.67093689 -0.00039276 1.34187378 -0.00078552 2.03314209 -0.00119019 C15.0395596 0.00788253 28.18419031 0.3898372 40.9375 3.1875 C36.47531514 8.5299061 31.76394608 13.50403199 26.83666992 18.41772461 C25.6527063 19.60431671 25.6527063 19.60431671 24.44482422 20.81488037 C21.85503607 23.40904325 19.26163931 25.99956298 16.66796875 28.58984375 C14.8627535 30.39573289 13.05768669 32.20177044 11.25276184 34.00794983 C7.48108468 37.78109767 3.70766157 41.55248729 -0.06713867 45.32250977 C-4.43508272 49.68498924 -8.79938078 54.05109143 -13.16184884 58.41904634 C-17.36380365 62.6260746 -21.56855234 66.83030171 -25.77451134 71.0333271 C-27.5635193 72.82166597 -29.3517792 74.6107535 -31.13929176 76.40058708 C-33.62667207 78.8904901 -36.11720601 81.37719378 -38.60864258 83.86303711 C-39.35303085 84.60944962 -40.09741913 85.35586212 -40.86436462 86.12489319 C-41.53861481 86.79632355 -42.21286499 87.46775391 -42.907547 88.15953064 C-43.49615415 88.74776076 -44.0847613 89.33599089 -44.69120502 89.94204617 C-46.0625 91.1875 -46.0625 91.1875 -47.0625 91.1875 C-47.0625 62.4775 -47.0625 33.7675 -47.0625 4.1875 C-30.93664733 1.64131274 -16.15830322 -0.0090811 0 0 Z " fill="#267C46" transform="translate(822.0625,608.8125)"/>
<path d="M0 0 C12.87 0 25.74 0 39 0 C39 18.15 39 36.3 39 55 C40.98 55 42.96 55 45 55 C45 62.92 45 70.84 45 79 C29.82 79 14.64 79 -1 79 C-1 71.08 -1 63.16 -1 55 C1.31 55 3.62 55 6 55 C6 44.44 6 33.88 6 23 C4.02 23 2.04 23 0 23 C0 15.41 0 7.82 0 0 Z " fill="#060606" transform="translate(786,267)"/>
<path d="M0 0 C12.87 0 25.74 0 39 0 C39 18.15 39 36.3 39 55 C40.98 55 42.96 55 45 55 C45 62.92 45 70.84 45 79 C30.15 79 15.3 79 0 79 C0 71.08 0 63.16 0 55 C1.98 55 3.96 55 6 55 C6 44.44 6 33.88 6 23 C4.02 23 2.04 23 0 23 C0 15.41 0 7.82 0 0 Z " fill="#030303" transform="translate(440,267)"/>
<path d="M0 0 C1.11761719 -0.01224609 2.23523438 -0.02449219 3.38671875 -0.03710938 C13.61817489 -0.05441172 23.02025076 1.0975264 33.375 2.1875 C33.375 26.6075 33.375 51.0275 33.375 76.1875 C25.49969961 69.43724252 25.49969961 69.43724252 23.02760315 66.96708679 C22.46264633 66.4049498 21.89768951 65.84281281 21.31561279 65.26364136 C20.72363098 64.66963531 20.13164917 64.07562927 19.52172852 63.46362305 C18.87697067 62.82061752 18.23221283 62.177612 17.56791687 61.51512146 C15.46074278 59.41231031 13.35720182 57.30590877 11.25390625 55.19921875 C9.78432069 53.73030733 8.31458674 52.26154433 6.8447113 50.79292297 C3.77774076 47.72742143 0.71257341 44.66013134 -2.35131836 41.59155273 C-6.28798943 37.64915456 -10.22917344 33.71130315 -14.17169094 29.77475262 C-17.20080303 26.74924197 -20.22754436 23.72136868 -23.25355721 20.69275856 C-24.70696577 19.23868113 -26.16112245 17.78535107 -27.61602592 16.33276939 C-29.6389357 14.31238254 -31.65864065 12.28884711 -33.67749023 10.2644043 C-34.28364166 9.6602771 -34.88979309 9.0561499 -35.51431274 8.43371582 C-39.625 4.30176842 -39.625 4.30176842 -39.625 3.1875 C-37.73031665 2.86810166 -35.83415006 2.55750421 -33.9375 2.25 C-32.88175781 2.07597656 -31.82601563 1.90195312 -30.73828125 1.72265625 C-20.54378063 0.27710792 -10.28123581 0.00580861 0 0 Z " fill="#052D16" transform="translate(376.625,608.8125)"/>
<path d="M0 0 C3.15640134 1.38719935 5.75829677 3.30141661 8.5 5.375 C10.07044598 6.48711769 11.64477487 7.59376963 13.22265625 8.6953125 C14.01559082 9.25250977 14.80852539 9.80970703 15.62548828 10.38378906 C29.50921707 19.83374635 45.29435734 27.14286 61.36035156 31.97265625 C71.71217197 35.10046992 71.71217197 35.10046992 75.1796875 40.10546875 C76.72833921 43.68211675 76.56291027 46.1221737 76 50 C74.59779653 53.50550868 73.40576082 54.73256673 70.25 56.8125 C63.51964397 59.27166855 57.84205745 57.68860827 51.375 55.375 C50.5281665 55.07360107 49.68133301 54.77220215 48.80883789 54.46166992 C-4.5570564 34.66441539 -4.5570564 34.66441539 -17 16 C-17.4775733 11.14467144 -17.51341394 8.95601216 -15.1875 4.625 C-10.75294744 -0.69646307 -6.55261137 -0.99303956 0 0 Z " fill="#000000" transform="translate(452,842)"/>
<path d="M0 0 C3.02089981 1.7475743 5.41608883 3.83217766 7 7 C7.34375 9.1015625 7.34375 9.1015625 7.5 11.625 C7.60828125 12.85089844 7.60828125 12.85089844 7.71875 14.1015625 C6.55129521 18.80945085 3.32343482 21.5810101 0 25 C-0.84933105 25.88091309 -1.69866211 26.76182617 -2.57373047 27.66943359 C-4.93644774 30.09353091 -7.31405604 32.49975699 -9.70776367 34.89306641 C-11.20066182 36.38818136 -12.68533392 37.89116956 -14.16992188 39.39453125 C-15.12711532 40.35465427 -16.08478056 41.31430722 -17.04296875 42.2734375 C-17.89914795 43.13372559 -18.75532715 43.99401367 -19.63745117 44.88037109 C-22.69872131 47.626878 -24.80843758 48.84457881 -28.875 49.375 C-33.82113103 48.78146428 -36.77776994 46.50741708 -39.875 42.6875 C-41.35117243 39.16108808 -41.46618895 36.79611 -41 33 C-38.32180157 28.43140069 -35.01999257 24.72489979 -31.28125 21.015625 C-30.74149536 20.47395691 -30.20174072 19.93228882 -29.64562988 19.37420654 C-28.51181393 18.23903817 -27.37550278 17.10635701 -26.23681641 15.97607422 C-24.49795244 14.2479651 -22.77007448 12.50938315 -21.04296875 10.76953125 C-19.93553688 9.66342032 -18.82748511 8.5579296 -17.71875 7.453125 C-17.20509888 6.93542542 -16.69144775 6.41772583 -16.16223145 5.88433838 C-11.25974835 1.04527916 -7.07313407 -1.37118338 0 0 Z " fill="#040404" transform="translate(666,570)"/>
<path d="M0 0 C1.82617188 1.18676758 1.82617188 1.18676758 3.59375 2.83203125 C4.28098145 3.4677002 4.96821289 4.10336914 5.67626953 4.75830078 C6.44310059 5.49806152 7.20993164 6.23782227 8 7 C8.88155762 7.84933105 9.76311523 8.69866211 10.67138672 9.57373047 C13.09430522 11.936916 15.50011586 14.31441496 17.89306641 16.70776367 C19.38818136 18.20066182 20.89116956 19.68533392 22.39453125 21.16992188 C23.35465427 22.12711532 24.31430722 23.08478056 25.2734375 24.04296875 C26.13372559 24.89914795 26.99401367 25.75532715 27.88037109 26.63745117 C30.3453339 29.38491087 31.89341935 31.47234404 32.15234375 35.18359375 C31.74090882 39.49992018 31.37821936 41.53449925 28.5625 45 C24.81863458 47.9220413 22.2362966 48.68496379 17.5234375 48.55859375 C12.79301536 47.51145696 10.00547741 44.14958368 6.72314453 40.75683594 C4.60094116 38.59313865 2.42389334 36.49052492 0.24609375 34.3828125 C-1.48309447 32.6940626 -3.2109447 31.00394166 -4.9375 29.3125 C-5.77909668 28.49289795 -6.62069336 27.6732959 -7.48779297 26.82885742 C-15.1619365 19.19118353 -15.1619365 19.19118353 -17 14 C-17 7.91567979 -15.08106025 5.1805983 -11 1 C-7.40579282 -0.79710359 -3.9078958 -0.67678854 0 0 Z " fill="#030303" transform="translate(543,570)"/>
<path d="M0 0 C3.39488422 2.05107588 4.80323081 3.70484621 7 7 C7.27415466 8.95283508 7.27415466 8.95283508 7.30639648 11.19262695 C7.32238388 12.03392654 7.33837128 12.87522614 7.35484314 13.74201965 C7.36288719 15.10141914 7.36288719 15.10141914 7.37109375 16.48828125 C7.38463646 17.89221382 7.38463646 17.89221382 7.39845276 19.32450867 C7.41296326 21.30574339 7.42184398 23.28702613 7.42553711 25.26831055 C7.43741563 28.29103028 7.48657769 31.31169666 7.53710938 34.33398438 C7.54657585 36.26040672 7.55380981 38.18684159 7.55859375 40.11328125 C7.57812607 41.01347488 7.59765839 41.91366852 7.61778259 42.84114075 C7.58667615 47.19539778 7.38602529 50.09735608 4.59008789 53.55541992 C0.55858856 57.36043479 -2.13750943 57.34338012 -7.51953125 57.28125 C-11.06688108 56.87903081 -12.68718177 55.67419608 -15 53 C-17.43030253 48.42047593 -17.32238056 44.03034404 -17.3359375 38.97265625 C-17.3425943 38.10611923 -17.3492511 37.23958221 -17.35610962 36.3467865 C-17.36620978 34.51872879 -17.37092746 32.69063441 -17.37060547 30.86254883 C-17.37498028 28.07506293 -17.41133105 25.28915938 -17.44921875 22.50195312 C-17.45508726 20.72135955 -17.45905643 18.9407585 -17.4609375 17.16015625 C-17.48249405 15.91770897 -17.48249405 15.91770897 -17.50448608 14.65016174 C-17.4624986 9.29881867 -16.57691703 6.22943537 -13 2 C-8.7609119 -0.82605874 -4.97875497 -0.66012246 0 0 Z " fill="#020202" transform="translate(605,541)"/>
<path d="M0 0 C9.9 0 19.8 0 30 0 C30 7.92 30 15.84 30 24 C20.1 24 10.2 24 0 24 C0 16.08 0 8.16 0 0 Z " fill="#0C0C0C" transform="translate(446,235)"/>
<path d="M0 0 C9.57 0 19.14 0 29 0 C29 7.92 29 15.84 29 24 C19.43 24 9.86 24 0 24 C0 16.08 0 8.16 0 0 Z " fill="#060606" transform="translate(792,235)"/>
<path d="M0 0 C0.75539063 0.07992188 1.51078125 0.15984375 2.2890625 0.2421875 C5.46073116 1.5845042 6.07073554 2.93770374 7.375 6.125 C7.79811801 9.46770641 7.79389559 12.75967105 7.75 16.125 C7.76160156 17.01445312 7.77320313 17.90390625 7.78515625 18.8203125 C7.7609942 24.21650398 7.38247356 28.11752644 3.375 32.125 C1.4140625 32.328125 1.4140625 32.328125 -1 32.375 C-1.79148437 32.40078125 -2.58296875 32.4265625 -3.3984375 32.453125 C-6.15214035 32.04731616 -6.95771658 31.31394879 -8.625 29.125 C-10.09872241 24.70383277 -9.93113795 20.38253781 -10 15.75 C-10.03738281 14.80382812 -10.07476563 13.85765625 -10.11328125 12.8828125 C-10.17227829 8.2154908 -10.14919524 5.8654716 -7.390625 1.96875 C-4.47269235 0.02346157 -3.41111732 -0.48060416 0 0 Z " fill="#F6F6F6" transform="translate(536.625,289.875)"/>
<path d="M0 0 C3.51578585 1.37574229 4.71719707 2.59464913 6.875 5.6875 C8.27435017 9.80780885 8.41921567 12.86982746 7 17 C4.39511567 20.13921957 2.20369092 22.69148327 -1.953125 23.2734375 C-6.24672199 23.46329043 -9.09582964 23.4342668 -12.5 20.625 C-16.13542732 16.80780131 -16.39236502 14.44157848 -16.359375 9.328125 C-15.75455722 5.40995764 -13.83123243 3.69641184 -11 1 C-7.54534728 -0.72732636 -3.78423122 -0.35415682 0 0 Z " fill="#000000" transform="translate(421,816)"/>
<path d="M0 0 C11.42307692 0 11.42307692 0 15 3 C17.34061355 7.68122711 16.48771898 13.91714552 16 19 C14.1875 22.375 14.1875 22.375 11 24 C7.37 24 3.74 24 0 24 C0 16.08 0 8.16 0 0 Z " fill="#F0F0F0" transform="translate(209,258)"/>
<path d="M0 0 C3.48326597 0.85529699 4.97293913 2.60978164 6.97265625 5.484375 C6.97265625 7.464375 6.97265625 9.444375 6.97265625 11.484375 C1.36265625 11.484375 -4.24734375 11.484375 -10.02734375 11.484375 C-10.02734375 5.484375 -10.02734375 5.484375 -8.52734375 2.609375 C-5.667774 0.17874072 -3.74624162 -0.25208355 0 0 Z " fill="#EAEAEA" transform="translate(626.02734375,284.515625)"/>
<path d="M0 0 C2.5 1.5625 2.5 1.5625 4 4 C4 6.31 4 8.62 4 11 C-1.28 11 -6.56 11 -12 11 C-12 4 -12 4 -10.5 1.5625 C-6.97873756 -0.63828902 -4.04560357 -0.80414661 0 0 Z " fill="#F0F0F0" transform="translate(973,285)"/>
<path d="M0 0 C2.5 1.5625 2.5 1.5625 4 4 C4 6.31 4 8.62 4 11 C-1.28 11 -6.56 11 -12 11 C-12 4 -12 4 -10.5 1.5625 C-6.97873756 -0.63828902 -4.04560357 -0.80414661 0 0 Z " fill="#F0F0F0" transform="translate(322,285)"/>
</svg>
